<?xml version="1.0" encoding="utf-8"?>
<svg version="1.1" xmlns:xlink="http://www.w3.org/1999/xlink" width="15px" height="15px" xmlns="http://www.w3.org/2000/svg">
  <g transform="matrix(1 0 0 1 -608 -230 )">
    <path d="M 14.404296875 4.58984375  C 14.8014322916667 5.51432291666667  15 6.484375  15 7.5  C 15 8.515625  14.8014322916667 9.48567708333333  14.404296875 10.41015625  C 14.0071614583333 11.3346354166667  13.4733072916667 12.1321614583333  12.802734375 12.802734375  C 12.1321614583333 13.4733072916667  11.3346354166667 14.0071614583333  10.41015625 14.404296875  C 9.48567708333334 14.8014322916667  8.515625 15  7.5 15  C 6.38020833333333 15  5.31575520833333 14.7639973958333  4.306640625 14.2919921875  C 3.29752604166667 13.8199869791667  2.43815104166667 13.154296875  1.728515625 12.294921875  C 1.68294270833333 12.2298177083333  1.66178385416667 12.1565755208333  1.6650390625 12.0751953125  C 1.66829427083333 11.9938151041667  1.69596354166667 11.9270833333333  1.748046875 11.875  L 3.0859375 10.52734375  C 3.15104166666667 10.46875  3.232421875 10.439453125  3.330078125 10.439453125  C 3.43424479166667 10.4524739583333  3.50911458333333 10.4915364583333  3.5546875 10.556640625  C 4.02994791666667 11.1751302083333  4.61263020833333 11.6536458333333  5.302734375 11.9921875  C 5.99283854166667 12.3307291666667  6.72526041666667 12.5  7.5 12.5  C 8.17708333333333 12.5  8.8232421875 12.3681640625  9.4384765625 12.1044921875  C 10.0537109375 11.8408203125  10.5859375 11.484375  11.03515625 11.03515625  C 11.484375 10.5859375  11.8408203125 10.0537109375  12.1044921875 9.4384765625  C 12.3681640625 8.8232421875  12.5 8.17708333333333  12.5 7.5  C 12.5 6.82291666666667  12.3681640625 6.1767578125  12.1044921875 5.5615234375  C 11.8408203125 4.9462890625  11.484375 4.4140625  11.03515625 3.96484375  C 10.5859375 3.515625  10.0537109375 3.1591796875  9.4384765625 2.8955078125  C 8.8232421875 2.6318359375  8.17708333333333 2.5  7.5 2.5  C 6.86197916666667 2.5  6.25 2.61555989583333  5.6640625 2.8466796875  C 5.078125 3.07779947916666  4.55729166666667 3.408203125  4.1015625 3.837890625  L 5.439453125 5.185546875  C 5.64127604166667 5.380859375  5.68684895833333 5.60546875  5.576171875 5.859375  C 5.46549479166667 6.11979166666667  5.2734375 6.25  5 6.25  L 0.625 6.25  C 0.455729166666667 6.25  0.309244791666667 6.18815104166667  0.185546875 6.064453125  C 0.0618489583333333 5.94075520833333  0 5.79427083333333  0 5.625  L 0 1.25  C 0 0.976562499999999  0.130208333333333 0.784505208333333  0.390625 0.673828125  C 0.64453125 0.563151041666665  0.869140625 0.608723958333333  1.064453125 0.810546875000001  L 2.333984375 2.0703125  C 3.03059895833333 1.41276041666667  3.82649739583333 0.903320312499999  4.7216796875 0.5419921875  C 5.61686197916667 0.180664062500001  6.54296875 0  7.5 0  C 8.515625 0  9.48567708333334 0.198567708333333  10.41015625 0.595703124999999  C 11.3346354166667 0.992838541666666  12.1321614583333 1.52669270833333  12.802734375 2.197265625  C 13.4733072916667 2.86783854166667  14.0071614583333 3.66536458333333  14.404296875 4.58984375  Z M 8.662109375 4.462890625  C 8.720703125 4.521484375  8.75 4.59635416666667  8.75 4.6875  L 8.75 9.0625  C 8.75 9.15364583333333  8.720703125 9.228515625  8.662109375 9.287109375  C 8.603515625 9.345703125  8.52864583333333 9.375  8.4375 9.375  L 5.3125 9.375  C 5.22135416666667 9.375  5.146484375 9.345703125  5.087890625 9.287109375  C 5.029296875 9.228515625  5 9.15364583333333  5 9.0625  L 5 8.4375  C 5 8.34635416666667  5.029296875 8.271484375  5.087890625 8.212890625  C 5.146484375 8.154296875  5.22135416666667 8.125  5.3125 8.125  L 7.5 8.125  L 7.5 4.6875  C 7.5 4.59635416666667  7.529296875 4.521484375  7.587890625 4.462890625  C 7.646484375 4.404296875  7.72135416666667 4.375  7.8125 4.375  L 8.4375 4.375  C 8.52864583333333 4.375  8.603515625 4.404296875  8.662109375 4.462890625  Z " fill-rule="nonzero" fill="#000000" stroke="none" transform="matrix(1 0 0 1 608 230 )" />
  </g>
</svg>