<?xml version="1.0" encoding="utf-8"?>
<svg version="1.1" xmlns:xlink="http://www.w3.org/1999/xlink" width="30px" height="30px" xmlns="http://www.w3.org/2000/svg">
  <g transform="matrix(1 0 0 1 -422 -227 )">
    <path d="M 437 227  C 445.4 227  452 233.6  452 242  C 452 250.4  445.4 257  437 257  C 428.6 257  422 250.4  422 242  C 422 233.6  428.6 227  437 227  Z " fill-rule="nonzero" fill="#ffffff" stroke="none" />
    <path d="M 437 227.5  C 445.12 227.5  451.5 233.88  451.5 242  C 451.5 250.12  445.12 256.5  437 256.5  C 428.88 256.5  422.5 250.12  422.5 242  C 422.5 233.88  428.88 227.5  437 227.5  Z " stroke-width="1" stroke="#d9001b" fill="none" />
  </g>
</svg>