<?xml version="1.0" encoding="utf-8"?>
<svg version="1.1" xmlns:xlink="http://www.w3.org/1999/xlink" width="30px" height="30px" xmlns="http://www.w3.org/2000/svg">
  <g transform="matrix(1 0 0 1 -57 -983 )">
    <path d="M 72 983  C 80.4 983  87 989.6  87 998  C 87 1006.4  80.4 1013  72 1013  C 63.6 1013  57 1006.4  57 998  C 57 989.6  63.6 983  72 983  Z " fill-rule="nonzero" fill="#ffffff" stroke="none" />
    <path d="M 72 983.5  C 80.12 983.5  86.5 989.88  86.5 998  C 86.5 1006.12  80.12 1012.5  72 1012.5  C 63.88 1012.5  57.5 1006.12  57.5 998  C 57.5 989.88  63.88 983.5  72 983.5  Z " stroke-width="1" stroke="#797979" fill="none" />
  </g>
</svg>